HIERARCHY
ROOT hip
{
  OFFSET 65.1675 87.4133 -50.687
  CHANNELS 6 Xposition Yposition Zposition Zrotation Xrotation Yrotation
  JOINT abdomen
  {
    OFFSET 0 20.6881 -0.73152
    CHANNELS 3 Zrotation Xrotation Yrotation
    JOINT chest
    {
      OFFSET 0 11.7043 -0.48768
      CHANNELS 3 Zrotation Xrotation Yrotation
      JOINT neck
      {
        OFFSET 0 22.1894 -2.19456
        CHANNELS 3 Zrotation Xrotation Yrotation
        JOINT head
        {
          OFFSET -0.24384 7.07133 1.2192
          CHANNELS 3 Zrotation Xrotation Yrotation
          JOINT leftEye
          {
            OFFSET 4.14528 8.04674 8.04672
            CHANNELS 3 Zrotation Xrotation Yrotation
            End Site
            {
              OFFSET 1 0 0
            }
          }
          JOINT rightEye
          {
            OFFSET -3.6576 8.04674 8.04672
            CHANNELS 3 Zrotation Xrotation Yrotation
            End Site
            {
              OFFSET 1 0 0
            }
          }
        }
      }
      JOINT rCollar
      {
        OFFSET -2.68224 19.2634 -4.8768
        CHANNELS 3 Zrotation Xrotation Yrotation
        JOINT rShldr
        {
          OFFSET -8.77824 -1.95073 1.46304
          CHANNELS 3 Zrotation Xrotation Yrotation
          JOINT rForeArm
          {
            OFFSET -28.1742 -1.7115 0.48768
            CHANNELS 3 Zrotation Xrotation Yrotation
            JOINT rHand
            {
              OFFSET -22.5879 0.773209 7.07136
              CHANNELS 3 Zrotation Xrotation Yrotation
              JOINT rThumb1
              {
                OFFSET -1.2192 -0.487915 3.41376
                CHANNELS 3 Zrotation Xrotation Yrotation
                JOINT rThumb2
                {
                  OFFSET -3.37035 -0.52449 3.41376
                  CHANNELS 3 Zrotation Xrotation Yrotation
                  End Site
                  {
                    OFFSET -1.78271 -1.18214 1.43049
                  }
                }
              }
              JOINT rIndex1
              {
                OFFSET -7.75947 0.938293 5.60832
                CHANNELS 3 Zrotation Xrotation Yrotation
                JOINT rIndex2
                {
                  OFFSET -2.54057 -0.884171 1.56538
                  CHANNELS 3 Zrotation Xrotation Yrotation
                  End Site
                  {
                    OFFSET -1.62519 -0.234802 1.16502
                  }
                }
              }
              JOINT rMid1
              {
                OFFSET -8.24714 1.18213 3.41376
                CHANNELS 3 Zrotation Xrotation Yrotation
                JOINT rMid2
                {
                  OFFSET -3.10165 -0.590103 1.0647
                  CHANNELS 3 Zrotation Xrotation Yrotation
                  End Site
                  {
                    OFFSET -2.48547 -0.328903 0.83742
                  }
                }
              }
              JOINT rRing1
              {
                OFFSET -8.82822 0.546677 1.51678
                CHANNELS 3 Zrotation Xrotation Yrotation
                JOINT rRing2
                {
                  OFFSET -2.60934 -0.819778 -0.0198488
                  CHANNELS 3 Zrotation Xrotation Yrotation
                  End Site
                  {
                    OFFSET -2.33842 -0.294052 0.168128
                  }
                }
              }
              JOINT rPinky1
              {
                OFFSET -8.27202 -0.0477905 -0.4584
                CHANNELS 3 Zrotation Xrotation Yrotation
                JOINT rPinky2
                {
                  OFFSET -1.82734 -0.647385 -0.700984
                  CHANNELS 3 Zrotation Xrotation Yrotation
                  End Site
                  {
                    OFFSET -1.69225 -0.51767 -0.607171
                  }
                }
              }
            }
          }
        }
      }
      JOINT lCollar
      {
        OFFSET 2.68224 19.2634 -4.8768
        CHANNELS 3 Zrotation Xrotation Yrotation
        JOINT lShldr
        {
          OFFSET 8.77824 -1.95073 1.46304
          CHANNELS 3 Zrotation Xrotation Yrotation
          JOINT lForeArm
          {
            OFFSET 28.1742 -1.7115 0.48768
            CHANNELS 3 Zrotation Xrotation Yrotation
            JOINT lHand
            {
              OFFSET 22.5879 0.773209 7.07136
              CHANNELS 3 Zrotation Xrotation Yrotation
              JOINT lThumb1
              {
                OFFSET 1.2192 -0.487915 3.41376
                CHANNELS 3 Zrotation Xrotation Yrotation
                JOINT lThumb2
                {
                  OFFSET 3.37035 -0.52449 3.41376
                  CHANNELS 3 Zrotation Xrotation Yrotation
                  End Site
                  {
                    OFFSET 1.78271 -1.18214 1.43049
                  }
                }
              }
              JOINT lIndex1
              {
                OFFSET 7.75947 0.938293 5.60832
                CHANNELS 3 Zrotation Xrotation Yrotation
                JOINT lIndex2
                {
                  OFFSET 2.54057 -0.884171 1.56538
                  CHANNELS 3 Zrotation Xrotation Yrotation
                  End Site
                  {
                    OFFSET 1.62519 -0.234802 1.16502
                  }
                }
              }
              JOINT lMid1
              {
                OFFSET 8.24714 1.18213 3.41376
                CHANNELS 3 Zrotation Xrotation Yrotation
                JOINT lMid2
                {
                  OFFSET 3.10165 -0.590103 1.0647
                  CHANNELS 3 Zrotation Xrotation Yrotation
                  End Site
                  {
                    OFFSET 2.48547 -0.328903 0.83742
                  }
                }
              }
              JOINT lRing1
              {
                OFFSET 8.82822 0.546677 1.51678
                CHANNELS 3 Zrotation Xrotation Yrotation
                JOINT lRing2
                {
                  OFFSET 2.60934 -0.819778 -0.0198488
                  CHANNELS 3 Zrotation Xrotation Yrotation
                  End Site
                  {
                    OFFSET 2.33842 -0.294052 0.168128
                  }
                }
              }
              JOINT lPinky1
              {
                OFFSET 8.27202 -0.0477905 -0.4584
                CHANNELS 3 Zrotation Xrotation Yrotation
                JOINT lPinky2
                {
                  OFFSET 1.82734 -0.647385 -0.700984
                  CHANNELS 3 Zrotation Xrotation Yrotation
                  End Site
                  {
                    OFFSET 1.69225 -0.51767 -0.607171
                  }
                }
              }
            }
          }
        }
      }
    }
  }
  JOINT rButtock
  {
    OFFSET -8.77824 4.35084 1.2192
    CHANNELS 3 Zrotation Xrotation Yrotation
    JOINT rThigh
    {
      OFFSET 0 -1.70687 -2.19456
      CHANNELS 3 Zrotation Xrotation Yrotation
      JOINT rShin
      {
        OFFSET 0 -36.8199 0.73152
        CHANNELS 3 Zrotation Xrotation Yrotation
        JOINT rFoot
        {
          OFFSET 0.73152 -45.1104 -5.12064
          CHANNELS 3 Zrotation Xrotation Yrotation
          End Site
          {
            OFFSET -1.1221 -3.69964 12.103
          }
        }
      }
    }
  }
  JOINT lButtock
  {
    OFFSET 8.77824 4.35084 1.2192
    CHANNELS 3 Zrotation Xrotation Yrotation
    JOINT lThigh
    {
      OFFSET 0 -1.70687 -2.19456
      CHANNELS 3 Zrotation Xrotation Yrotation
      JOINT lShin
      {
        OFFSET 0 -36.8199 0.73152
        CHANNELS 3 Zrotation Xrotation Yrotation
        JOINT lFoot
        {
          OFFSET -0.73152 -45.1104 -5.12064
          CHANNELS 3 Zrotation Xrotation Yrotation
          End Site
          {
            OFFSET 1.1221 -3.69964 12.103
          }
        }
      }
    }
  }
}
MOTION
Frames:	5
Frame Time:	0.00833333
-45.9265 84.8152 164.132 0.231772 -0.000477305 -0.00396135 -0.304925 -0.00138248 -0.00870873 -0.0841233 -0.00211304 -0.0145739 1.09022e-015 -2.38542e-015 -2.79541e-017 3.07806e-015 -6.36111e-015 -7.92033e-017 -0 0 0 -0 0 0 5.45321e-016 -5.04727e-018 1.98785e-016 1.34893e-014 1.86361e-016 5.96354e-016 1.86311e-013 -5.84427e-014 -3.18055e-014 2.14504e-012 4.60435e-014 -2.8625e-014 5.05563e-012 -3.16535e-014 -1.11319e-013 8.72665e-012 -6.36111e-014 -1.94809e-013 5.06305e-012 -2.90226e-014 -1.145e-013 7.73091 5.47488 0.417314 5.05639e-012 -3.12092e-014 -1.145e-013 2.90554 0.965183 0.102902 5.06177e-012 -3.19049e-014 -1.09729e-013 10.2786 0.731801 0.0259123 5.04555e-012 -2.8625e-014 -1.01778e-013 2.22167 -0.733487 -0.20892 5.48029e-016 -4.65902e-018 -1.98785e-016 8.38147e-015 6.83322e-017 -9.93923e-016 1.87901e-013 5.20816e-014 9.54166e-015 2.14013e-012 -7.37491e-014 -4.45278e-014 5.05281e-012 -5.0597e-014 -1.11319e-013 8.73022e-012 -8.90555e-014 -1.81292e-013 5.04714e-012 -5.08889e-014 -9.54166e-014 -7.73091 5.47488 -0.417314 5.0534e-012 -5.00937e-014 -1.04958e-013 -2.90554 0.965183 -0.102902 5.04776e-012 -5.04913e-014 -1.08934e-013 -10.2786 0.731801 -0.0259123 5.05708e-012 -4.85035e-014 -1.145e-013 -2.22167 -0.733487 0.20892 -2.03217e-016 0 -3.88251e-019 0.270495 -2.6877 -0.0303701 -0.00708456 -0.684096 -0.0619116 -0.501123 3.37132 0.125906 2.03217e-016 0 3.88251e-019 -0.734665 -3.8709 0.0596587 0.00369305 1.45913 0.0297789 0.504936 2.41135 -0.106806 
-53.736 84.3428 158.314 6.56142 4.48033 26.8719 -1.29001 3.80233 -1.68617 0.638201 -3.08828 -0.472478 0.0383953 -2.53548 -1.57097 -1.41765 -4.3127 -3.35666 -0 0 0 -0 0 0 3.56075e-014 -1.31078e-013 1.18164e-014 -14.863 -23.0598 10.9814 -9.43599 -6.29671 11.9165 0.41138 -14.3733 -1.80203 1.92552e-010 -3.43627e-010 -5.5806e-010 3.54212e-010 -5.95805e-010 -9.53568e-010 1.92561e-010 -3.43625e-010 -5.58068e-010 7.73091 5.47488 0.417314 1.92553e-010 -3.43627e-010 -5.58062e-010 2.90554 0.965183 0.102902 1.92557e-010 -3.43627e-010 -5.58059e-010 10.2786 0.731801 0.0259123 1.92543e-010 -3.43624e-010 -5.5805e-010 2.22167 -0.733487 -0.20892 3.55994e-014 -1.31079e-013 1.14266e-014 14.2393 -25.1347 -7.18479 6.08869 -3.27739 -8.89312 -0.161363 -8.93149 1.20087 -3.79281e-010 -3.60781e-011 7.43225e-010 -6.71939e-010 -6.22005e-011 1.27583e-009 -3.79287e-010 -3.60801e-011 7.43239e-010 -7.73091 5.47488 -0.417314 -3.79282e-010 -3.60807e-011 7.43228e-010 -2.90554 0.965183 -0.102902 -3.79287e-010 -3.60823e-011 7.43225e-010 -10.2786 0.731801 -0.0259123 -3.79275e-010 -3.60787e-011 7.43219e-010 -2.22167 -0.733487 0.20892 -2.03217e-016 0 -3.88251e-019 -3.81109 -2.49597 -3.60737 0.0106412 12.3425 0.12528 -0.633567 0.319397 -1.03871 2.03217e-016 0 3.88251e-019 0.39839 -4.21358 -0.879666 0.00799124 13.8212 -0.137853 0.128989 1.01156 -3.79785 
-53.9602 84.4708 158.074 9.40232 5.8149 55.5557 -2.07836 7.80749 -3.46776 1.33801 -6.34454 -0.955886 -0.0708835 -5.23918 -3.23061 -3.46451 -8.85314 -6.94873 -0 0 0 -0 0 0 7.24965e-014 -2.67875e-013 2.32361e-014 -17.8621 -44.0771 29.7047 -16.5989 -12.0417 24.9515 -0.269231 -29.3449 -4.1065 3.97682e-010 -6.9809e-010 -1.13688e-009 7.30377e-010 -1.21194e-009 -1.94223e-009 3.97691e-010 -6.98087e-010 -1.13689e-009 7.73091 5.47488 0.417314 3.97681e-010 -6.98089e-010 -1.13688e-009 2.90554 0.965183 0.102902 3.97685e-010 -6.9809e-010 -1.13688e-009 10.2786 0.731801 0.0259123 3.97674e-010 -6.98087e-010 -1.13687e-009 2.22167 -0.733487 -0.20892 7.24782e-014 -2.67878e-013 2.28509e-014 18.8852 -50.2444 -21.2807 11.3949 -6.44365 -18.3375 0.0950429 -18.3713 2.57296 -7.61708e-010 -4.52928e-011 1.51286e-009 -1.34991e-009 -7.79701e-011 2.59736e-009 -7.61714e-010 -4.52968e-011 1.51287e-009 -7.73091 5.47488 -0.417314 -7.61711e-010 -4.52989e-011 1.51286e-009 -2.90554 0.965183 -0.102902 -7.61713e-010 -4.5302e-011 1.51286e-009 -10.2786 0.731801 -0.0259123 -7.61699e-010 -4.52965e-011 1.51285e-009 -2.22167 -0.733487 0.20892 -2.03217e-016 0 -3.88251e-019 -8.06638 -2.20599 -7.3462 -0.0705187 26.0049 0.352101 -0.92829 -3.04928 -2.35013 2.03217e-016 0 3.88251e-019 1.59798 -4.57609 -1.901 0.0999592 26.9063 -0.34419 -0.467622 -0.450355 -7.73202 
-54.2455 84.5755 157.899 11.1631 2.49454 80.6829 -2.58157 11.3701 -5.13092 1.9332 -9.25821 -1.40453 -0.304538 -7.58345 -4.74994 -5.79269 -12.7583 -10.2984 -0 0 0 -0 0 0 1.05732e-013 -3.93224e-013 3.50517e-014 -2.95772 -54.4061 60.0418 -20.7807 -15.6054 37.1125 -2.31218 -42.9167 -7.15943 5.67546e-010 -1.03082e-009 -1.67396e-009 1.04518e-009 -1.78729e-009 -2.86031e-009 5.67556e-010 -1.03082e-009 -1.67398e-009 7.73091 5.47488 0.417314 5.67545e-010 -1.03082e-009 -1.67396e-009 2.90554 0.965183 0.102902 5.67548e-010 -1.03082e-009 -1.67396e-009 10.2786 0.731801 0.0259123 5.67539e-010 -1.03082e-009 -1.67395e-009 2.22167 -0.733487 -0.20892 1.05702e-013 -3.93228e-013 3.46774e-014 -1.18611 -66.1099 -55.5294 15.3061 -8.88639 -26.985 0.752532 -26.7445 3.98591 -1.14795e-009 -1.08133e-010 2.2299e-009 -2.03328e-009 -1.86423e-010 3.82786e-009 -1.14796e-009 -1.08138e-010 2.22991e-009 -7.73091 5.47488 -0.417314 -1.14795e-009 -1.08142e-010 2.22989e-009 -2.90554 0.965183 -0.102902 -1.14796e-009 -1.08146e-010 2.22989e-009 -10.2786 0.731801 -0.0259123 -1.14794e-009 -1.08139e-010 2.22989e-009 -2.22167 -0.733487 0.20892 -2.03217e-016 0 -3.88251e-019 -11.9022 -2.09001 -10.7584 -0.264113 38.394 0.626432 -1.27156 -5.77429 -3.38466 2.03217e-016 0 3.88251e-019 2.6307 -4.89475 -2.76099 0.283659 38.5441 -0.589579 -1.1608 -1.74754 -11.1836 
-54.5867 84.6722 157.82 13.4126 -2.54267 97.3747 -2.84231 13.8623 -6.41511 2.36987 -11.3176 -1.75139 -0.548473 -9.0509 -5.88189 -7.72352 -15.2448 -12.8194 -0 0 0 -0 0 0 1.29832e-013 -4.89952e-013 4.78574e-014 13.7432 -53.4683 85.2104 -22.7195 -16.8771 45.7811 -5.41661 -53.1439 -10.8059 6.49248e-010 -1.30921e-009 -2.10669e-009 1.20659e-009 -2.26064e-009 -3.60195e-009 6.49259e-010 -1.30921e-009 -2.10671e-009 7.73091 5.47488 0.417314 6.49247e-010 -1.30921e-009 -2.10668e-009 2.90554 0.965183 0.102902 6.49249e-010 -1.30921e-009 -2.10669e-009 10.2786 0.731801 0.0259123 6.49242e-010 -1.30921e-009 -2.10668e-009 2.22167 -0.733487 -0.20892 1.29789e-013 -4.89957e-013 4.75095e-014 -30.5288 -66.4504 -93.7292 17.7062 -10.3743 -33.3645 1.49801 -32.4986 5.13654 -1.54373e-009 -3.05037e-010 2.81543e-009 -2.73016e-009 -5.26585e-010 4.8308e-009 -1.54374e-009 -3.05042e-010 2.81544e-009 -7.73091 5.47488 -0.417314 -1.54373e-009 -3.05046e-010 2.81543e-009 -2.90554 0.965183 -0.102902 -1.54374e-009 -3.0505e-010 2.81543e-009 -10.2786 0.731801 -0.0259123 -1.54372e-009 -3.05043e-010 2.81542e-009 -2.22167 -0.733487 0.20892 -2.03217e-016 0 -3.88251e-019 -14.7883 -2.41308 -13.3577 -0.522658 47.6009 0.914462 -1.41206 -6.90546 -3.69639 2.03217e-016 0 3.88251e-019 3.27188 -5.10744 -3.21544 0.495755 46.565 -0.826348 -1.71474 -2.67958 -13.4201 
